/* XPM */
static char * month_xpm[] = {
"22 72 6 1",
" 	c #FFFFFF",
".	c #AAAAAA",
"+	c #000000",
"@	c #555555",
"#	c #AEAAAE",
"$	c #515551",
"                      ",
"   .++++ +++++ +   +  ",
"   +      .+    + +   ",
"   .++.   +.    .+    ",
"      +  .+     +     ",
"  ++++.  +      +     ",
"                      ",
"    +    +  .+ +++++  ",
"   .+   .+  +   .+    ",
"   +.   +. .+   +.    ",
"   +    +  +.  .+     ",
"  @++++ @++    +      ",
"                      ",
"  +    +    +    +++++",
"  +   ++    +.   +   +",
" + + + +   + +  +++++ ",
" +  +  +  ++++  +   + ",
"+      + +   + +    + ",
"                      ",
"    +# + +     +   +  ",
"   #+ +# +  + +.  #+  ",
"   + +   +.++.+   +   ",
"  #+ #+  ++  +.  #+   ",
"  +   +# +   +   +    ",
"                      ",
"   +    +    +      + ",
"  .+   ++    +     .+ ",
"  +.+ + +   + +    +. ",
" .+  +  +  ++++ +  +  ",
" +      + +   +  ++   ",
"                      ",
"   +++   +++++  +++++ ",
"  +        #+  .+     ",
"  +       +#   ++++   ",
" +      #+#    +      ",
" +++++ #+++++ @++++   ",
"                      ",
"     +     +   @+++@  ",
"    .+    #+  .+   +  ",
"    +.    +   +++++   ",
"    +    #+  .+       ",
"   @++++ +   +        ",
"                      ",
"   .++++  +   +++++   ",
"   +     #+  .+       ",
"   .++.  +   ++++     ",
"      + #+   +        ",
"  ++++. +   @++++     ",
"                      ",
"  +     +  +++++   +  ",
"  +  + +.  +   +  #+  ",
"  +.++.+  +++++   +   ",
"  ++  +.  +   +  #+   ",
"  +   +  +    +  +    ",
"                      ",
"   @+++@   +    +++++ ",
"  .+   +   +      #+  ",
"  +++++   + +    +#   ",
" .+      ++++  #+#    ",
" +      +   + #+++++  ",
"                      ",
"     +     +  #++++   ",
"    #+    #+  +       ",
"    +#    +   #++#    ",
"    +    #+      +    ",
"   $++++ +   ++++#    ",
"                      ",
"  .++++  +++++  +  .+ ",
"  +      +   + .+  +  ",
" .+ +++ +++++  +. .+  ",
" +.  +  +   +  +  +.  ",
"  +++  +    +  @++    "};
