/* XPM */
static char * asclock_tydzien_xpm[] = {
"20 42 2 1",
" 	c #FFFFFF",
".	c #000000",
"                    ",
" ....   ....  .   . ",
" .   . .    . ..  . ",
" ....  .    . . . . ",
" .     .    . .  .. ",
" .      ....  .   . ",
"                    ",
" .    . .....  .... ",
" .    .   .   .    .",
" . .. .   .   .    .",
" ..  ..   .   .    .",
" .    .   .    .... ",
"    .               ",
"  .... .....   .... ",
" .     .    . .    .",
"  ...  .....  .    .",
"     . .   .  .    .",
" ....  .    .  .... ",
"                    ",
"  ...  ..... .    . ",
" .   .    .  .    . ",
" .       .   . .. . ",
" .   .  .    ..  .. ",
"  ...  ..... .    . ",
"                    ",
" ....  .....   ..   ",
" .   .   .    .  .  ",
" ....    .    .  .  ",
" .       .   ...... ",
" .     ..... .    ..",
"                    ",
"  ....  ....  ....  ",
" .     .    . .   . ",
"  ...  .    . ....  ",
"     . .    . .   . ",
" ....   ....  ....  ",
"                    ",
" .   . .....  ..... ",
" ..  .   .    .     ",
" . . .   .    ....  ",
" .  ..   .    .     ",
" .   . .....  ..... "};
